PathFileType	4	(X/Y/Z)	C:/Users/opensim2020/Desktop/walking_exp_matlab/subject02/subject02_trc/subject02_walking16_run_cyclic.trc	
DataRate	CameraRate	NumFrames	NumMarkers	Units	OrigDataRate	OrigDataStartFrame	OrigNumFrames	
100.00	100.00	6	51	mm	100.00	177	60	
Frame#	Time	RTOE			LSHO			LELB			RELB			RFIN			LTHI			LKNE			RWRB			RUPA			LTIB			RASI			LANK			LTOE			RSHO			RWRA			RFRM			LASI			STRN			LFHD			RTHI			RFHD			LWRB			LFIN			LUPA			RKNE			RBHD			LFRM			C7			LWRA			RTIB			CLAV			LHEE			RANK			LBHD			RBAK			RHEE			T10			LPSI			RPSI			*39			*40			*41			*42			*43			*44			*45			*46			*47			*48			*49			*50			
		X1	Y1	Z1	X2	Y2	Z2	X3	Y3	Z3	X4	Y4	Z4	X5	Y5	Z5	X6	Y6	Z6	X7	Y7	Z7	X8	Y8	Z8	X9	Y9	Z9	X10	Y10	Z10	X11	Y11	Z11	X12	Y12	Z12	X13	Y13	Z13	X14	Y14	Z14	X15	Y15	Z15	X16	Y16	Z16	X17	Y17	Z17	X18	Y18	Z18	X19	Y19	Z19	X20	Y20	Z20	X21	Y21	Z21	X22	Y22	Z22	X23	Y23	Z23	X24	Y24	Z24	X25	Y25	Z25	X26	Y26	Z26	X27	Y27	Z27	X28	Y28	Z28	X29	Y29	Z29	X30	Y30	Z30	X31	Y31	Z31	X32	Y32	Z32	X33	Y33	Z33	X34	Y34	Z34	X35	Y35	Z35	X36	Y36	Z36	X37	Y37	Z37	X38	Y38	Z38	X39	Y39	Z39	X40	Y40	Z40	X41	Y41	Z41	X42	Y42	Z42	X43	Y43	Z43	X44	Y44	Z44	X45	Y45	Z45	X46	Y46	Z46	X47	Y47	Z47	X48	Y48	Z48	X49	Y49	Z49	X50	Y50	Z50	X51	Y51	Z51	

11	0.100	84.30848	-1832.87305	114.87358	-190.15695	-1268.49438	1487.12244	-440.09970	-1399.02893	1300.40698	327.50677	-1251.53894	1213.19849	112.06979	-1040.66809	1232.94299	-175.05489	-1250.73572	707.10870	-134.93605	-1202.09314	512.35370	148.83513	-1073.72498	1183.55322	279.16409	-1277.66516	1354.06348	-135.68465	-1190.45850	321.39258	138.87386	-1297.48181	976.80151	-99.16891	-1116.39392	107.06920	-84.26929	-957.40460	106.48308	147.49666	-1241.04578	1504.20459	128.34418	-1104.03638	1226.95105	241.58138	-1159.68250	1197.38025	-98.98059	-1271.32605	1005.94525	-14.93649	-1195.41406	1263.36865	-114.16308	-1189.51538	1731.54565	180.52541	-1485.21533	698.66846	31.63806	-1189.95496	1728.09399	-403.42688	-1331.54077	1044.00708	-380.69788	-1289.26453	995.02844	-348.25549	-1339.57141	1396.34863	138.23360	-1557.22705	497.03281	26.63244	-1319.16052	1628.86987	-435.08646	-1367.76196	1162.95898	-22.50428	-1336.15173	1526.70728	-361.93408	-1299.03369	1068.76978	114.62170	-1716.90112	393.84509	-39.06276	-1207.03271	1443.08435	-48.20059	-1149.04907	74.84607	57.50013	-1860.34985	276.14755	-116.15014	-1305.64929	1636.25830	75.34958	-1414.23352	1391.16687	-12.13676	-1898.69128	267.60825	18.79426	-1447.55737	1287.56628	-54.05523	-1475.59448	1078.15430	62.42622	-1483.37683	1079.18188				-3357.25220	2845.93677	1034.64124																									-33.11430	-1302.11023	1788.33398			 
12	0.110	92.28589	-1788.26941	125.88158	-193.03403	-1230.79065	1484.55688	-431.05762	-1365.13562	1280.40552	326.99512	-1228.47217	1212.79614	114.87756	-1012.94287	1214.50220	-179.60872	-1221.79297	700.86908	-132.52426	-1172.02124	510.42548	152.45384	-1049.56909	1168.58643	279.13727	-1248.87573	1354.72058	-130.91148	-1164.08801	319.86081	136.49930	-1257.18640	980.26263	-93.04408	-1095.96643	103.58388	-82.82834	-936.59039	99.70543	149.79544	-1206.09509	1505.14307	130.43130	-1076.66858	1213.40784	243.14758	-1135.99658	1189.84290	-100.81631	-1234.52844	1006.86993	-15.77774	-1158.38538	1265.16748	-114.15234	-1151.86316	1732.38770	183.42181	-1437.77966	696.23376	31.16529	-1153.22644	1729.32581	-377.83667	-1281.00256	1032.64612	-353.45789	-1234.84888	988.59619	-346.44351	-1305.87012	1381.80396	143.31226	-1504.24695	494.36618	26.07576	-1282.28638	1629.92200	-417.20215	-1325.61719	1146.33093	-22.71158	-1298.78223	1527.65186	-339.10541	-1249.17615	1062.47351	118.69250	-1667.02649	397.67947	-39.69767	-1170.80823	1443.86011	-41.08213	-1128.44751	72.32794	60.71625	-1814.27783	285.03513	-116.66928	-1268.54346	1636.99316	74.86305	-1377.93030	1391.35022	-9.38650	-1854.04272	275.07419	19.19383	-1410.50940	1290.12549	-54.01892	-1438.06567	1081.43286	63.05455	-1445.44360	1083.44019				-3357.50586	2845.86865	1034.70935																									-33.99048	-1265.23962	1789.33618			 
13	0.120	99.55949	-1737.90369	134.13135	-195.80391	-1192.93079	1480.66638	-420.62775	-1328.51978	1258.17114	326.15833	-1206.24158	1212.08667	119.62704	-985.84106	1193.12634	-183.31424	-1193.47742	693.99951	-129.94962	-1139.38623	509.13409	157.59456	-1026.60278	1151.40759	278.87570	-1220.27856	1354.58264	-126.48023	-1142.32605	317.73862	134.02852	-1216.91638	982.71667	-86.88503	-1083.45886	99.01978	-78.78891	-924.68854	88.92232	151.72685	-1170.97571	1504.42358	133.72380	-1049.90186	1197.54736	245.38177	-1113.61597	1180.74963	-103.64515	-1199.32361	1005.88184	-16.11181	-1121.93018	1265.68469	-114.20774	-1114.86426	1732.11426	186.84044	-1388.98621	692.37555	30.91733	-1116.60474	1729.31091	-350.64401	-1227.42114	1021.86127	-324.91885	-1177.25073	983.38513	-344.38892	-1271.07202	1364.77344	148.54552	-1447.38879	489.55460	25.64661	-1245.34351	1629.39917	-397.70999	-1280.27600	1128.78577	-23.14869	-1261.00000	1527.64429	-315.23593	-1196.55200	1056.86047	123.69495	-1613.35242	399.39374	-40.10672	-1134.63342	1443.44312	-34.12624	-1114.77979	68.26656	65.37247	-1763.91248	291.73328	-117.12229	-1231.26050	1636.56824	73.63257	-1341.81201	1391.07520	-4.56260	-1806.20459	281.18723	18.65846	-1373.55786	1291.71313	-53.69406	-1400.72351	1083.07764	63.92197	-1407.86768	1086.66125				-3360.40039	2845.19727	1034.31580																									-34.67313	-1228.96838	1789.16467			 
14	0.130	107.65889	-1683.37524	140.16302	-198.40218	-1155.74915	1475.98828	-408.89172	-1288.76917	1234.23035	325.18069	-1184.23926	1211.40857	126.01074	-959.80548	1169.24121	-183.73996	-1163.20752	687.36243	-127.33418	-1105.76855	506.96295	164.16676	-1004.84607	1132.47168	278.01257	-1191.03198	1353.68518	-122.42739	-1123.05713	315.00403	131.60571	-1176.92749	984.47711	-80.56978	-1077.30664	93.82381	-72.96831	-920.03284	75.41669	152.83568	-1134.99609	1502.25159	137.78790	-1024.06433	1179.08655	248.24333	-1092.00342	1170.91187	-106.40619	-1165.34070	1003.78271	-16.46602	-1085.36426	1264.81274	-114.13536	-1078.07581	1731.17078	190.75856	-1338.04517	687.14191	30.88651	-1080.02283	1727.99731	-321.47937	-1170.56396	1013.22150	-294.66174	-1117.05835	980.52161	-340.39221	-1236.00171	1346.58362	153.67383	-1388.80933	483.29150	25.14581	-1208.26257	1627.45496	-375.60193	-1231.14197	1111.25537	-24.02973	-1223.12708	1526.64966	-290.45078	-1141.38025	1052.86145	129.40523	-1556.30835	398.81967	-40.56138	-1097.81091	1441.75720	-27.82466	-1110.81055	65.41846	71.39750	-1710.36084	295.76550	-117.62521	-1193.85632	1635.00867	72.02851	-1305.43823	1389.91699	1.85288	-1755.14111	284.30334	17.40440	-1336.59448	1292.12061	-53.16116	-1364.23572	1083.37988	64.74293	-1370.51331	1087.84753				-3357.34180	2846.10767	1034.23584																									-35.10540	-1192.76868	1787.31360			 
15	0.140	115.94590	-1624.04309	143.87895	-200.88693	-1119.05640	1470.18115	-395.63593	-1245.62805	1209.42871	324.07315	-1162.10974	1211.00720	134.18945	-935.41345	1143.12158	-179.74890	-1132.03796	682.54565	-125.28859	-1073.65552	502.88458	172.17320	-984.45398	1112.26099	276.27606	-1160.98157	1352.50134	-118.92767	-1106.41882	312.19339	129.02206	-1137.39160	985.40057	-74.04258	-1075.87170	88.75195	-65.17960	-920.63330	61.31482	152.93593	-1097.76807	1499.01733	143.43221	-998.97510	1159.13757	252.07059	-1070.90393	1160.72314	-109.32722	-1131.41528	1001.63568	-16.72806	-1048.86560	1262.58521	-113.87380	-1041.34314	1729.44617	194.57481	-1285.30078	680.77277	31.18410	-1043.56042	1725.25928	-290.94492	-1111.03479	1007.13440	-263.27219	-1054.59631	981.21350	-335.05261	-1199.60059	1327.84204	158.70691	-1328.63892	476.44193	24.58123	-1171.06396	1624.19775	-352.78314	-1179.67139	1094.55347	-25.45230	-1185.35315	1524.58325	-264.99005	-1084.54688	1051.46191	135.68188	-1496.89319	396.11539	-40.94031	-1061.24060	1438.84058	-21.37851	-1111.79944	62.90487	78.46426	-1653.94397	297.05646	-118.07773	-1156.60303	1632.51990	70.03028	-1269.05566	1388.60193	9.28934	-1700.93616	284.80618	15.55009	-1299.72278	1291.25098	-52.16034	-1328.12988	1081.97827	65.63291	-1333.08203	1087.24438				-3357.47485	2845.88013	1034.34302																									-34.81202	-1156.34155	1784.09875			 
16	0.150	124.38297	-1560.22925	145.49373	-203.35623	-1082.72913	1463.28040	-381.15472	-1199.09265	1184.20789	323.04477	-1139.24719	1211.16333	144.69400	-912.84509	1115.67871	-172.96915	-1098.74731	680.45422	-123.64259	-1045.18213	496.91199	181.74670	-965.58368	1091.18506	274.00378	-1130.26111	1351.34375	-115.56760	-1092.25671	308.85828	126.14200	-1098.57068	985.09814	-67.67802	-1076.96228	83.65877	-56.69567	-924.07007	46.34053	152.23773	-1059.75610	1495.17834	150.50618	-975.40759	1138.02405	256.17331	-1050.43591	1150.63403	-113.14906	-1097.81812	997.91980	-17.03270	-1012.29114	1258.87903	-113.45074	-1004.45538	1726.47095	198.17284	-1231.63098	673.67560	31.46850	-1006.72681	1721.26917	-259.42276	-1048.69397	1004.97919	-230.15250	-990.14758	987.39435	-328.83203	-1161.58936	1308.97351	163.91814	-1266.21570	468.43900	24.18289	-1134.10913	1619.75024	-327.82355	-1124.27551	1079.30518	-27.30272	-1147.93176	1521.39636	-238.23933	-1025.85754	1054.12036	142.52296	-1435.58008	391.81924	-41.30865	-1024.73584	1434.79578	-14.97551	-1113.23401	59.90819	86.15681	-1594.55811	295.89658	-118.45069	-1119.34375	1629.10535	67.66967	-1232.82202	1386.35071	17.84685	-1644.16479	282.60617	13.23169	-1263.10278	1289.10510	-50.90650	-1292.08984	1078.59998	66.70644	-1295.53149	1084.70776				-3357.29834	2846.03638	1034.48169																									-33.98767	-1119.95898	1779.98572			 
